<svg version="1.1" xmlns="http://www.w3.org/2000/svg" xmlns:xlink="http://www.w3.org/1999/xlink" xmlns:i="http://ns.adobe.com/AdobeIllustrator/10.0/" xmlns:sketch="http://www.bohemiancoding.com/sketch/ns" viewBox="0 0 640 480" xml:space="preserve" preserveAspectRatio="xMidYMid meet" class="">{{text2Gradient}}<rect x="0px" y="0px" width="100%" height="100%" fill="#2d4762"></rect><defs><pattern id="pattern_1502_ughB1566_n2ot4732" x="0" y="0" width="50" height="50" patternUnits="userSpaceOnUse" patternTransform="rotate(0) scale(1.0)">
<path fill="#1b2a3a" d="M50,0h-0.3v6.1h0v0l-8.9,4.6L25,19l-10.7-5.6l-5-2.6L0.3,6.1v0h0V0H0v50h0.3V31l13.9,7.3L25,43.9L49.7,31v19
	H50V0z M49.7,30.3L25,43.2l-10.7-5.6L0.3,30.3V6.8l7.6,3.9l6.4,3.3L25,19.7l17.1-8.9l7.6-3.9V30.3z"></path>
</pattern></defs><rect class="dh_lm_bg_pattern_2907" x="0px" y="0px" width="640" height="480" fill="url(#pattern_1502_ughB1566_n2ot4732)" style="opacity:1"></rect><g class="logo-container-box logoContainerBox" transform="scale(0.99) translate(3.2323232323232105,2.4242424242424363)"><g class="containerBody" transform="scale(1.12) translate(-34.28569902692527,4.277466910225996)"><g class="sampleIconBox" transform="scale(1) translate(0,0)"><g class="sampleIcons_1" transform="scale(0.06359181383480975) translate(3614.7686767578125,1162.271212158203)" fill="#e8c400"><g><g><g><g><path d="M1135.489,1869.41c-54.202,0-109.341-12.591-163.887-37.424c-48.258-21.971-95.257-53.06-139.691-92.402     c-39.071-34.595-75.482-75.266-105.296-117.614c-27.7-39.345-48.691-78.456-60.703-113.104     c-47.003-135.586-70.103-159.772-220.395-317.137l-0.269-0.282l0.292-0.258c95.476-84.322,193.351-127.077,290.906-127.077     c52.293,0,104.816,12.342,156.11,36.682c41.026,19.468,81.362,46.612,119.888,80.679     c65.588,57.997,103.679,116.758,104.056,117.345l0.092,0.143l-0.047,0.163c-78.273,274.695-57.663,335.99-12.503,470.29     c9.626,28.628,20.537,61.075,31.808,99.517l0.141,0.48H1135.489z" stroke-width="1px" opacity="1"></path><path d="M736.447,1064.487c229.014,0,379.738,234.533,379.738,234.533     c-95.003,333.405-44.813,351.33,19.304,570.016c-229.853,0-422.617-225.855-469.222-360.293     c-46.605-134.438-68.115-157.74-220.478-317.273C551.334,1098.255,649.516,1064.487,736.447,1064.487 M736.447,1063.737     c-46.099,0-92.742,9.62-138.635,28.593c-51.025,21.094-102.34,54.261-152.519,98.578l-0.585,0.516l0.539,0.564     c150.243,157.314,173.335,181.492,220.311,317c12.023,34.681,33.03,73.824,60.75,113.198     c29.831,42.372,66.262,83.065,105.355,117.679c44.462,39.368,91.492,70.477,139.784,92.463     c54.595,24.855,109.787,37.458,164.042,37.458h1.001l-0.282-0.961c-11.273-38.449-22.185-70.901-31.812-99.532     c-45.133-134.223-65.732-195.484,12.509-470.067l0.093-0.326l-0.183-0.285c-0.377-0.587-38.496-59.392-104.123-117.423     c-38.552-34.09-78.917-61.253-119.975-80.736C841.373,1076.091,788.796,1063.737,736.447,1063.737L736.447,1063.737z" stroke-width="1px" opacity="1"></path></g><g><path d="M824.227,2085.855c-72.56,0-137.921-13.329-194.266-39.618c-62.897-29.345-111.703-73.824-145.063-132.204     c-77.742-136.047-161.764-207.711-218.561-243.873c-61.512-39.164-105.18-46.26-105.613-46.327l-0.683-0.105l0.461-0.515     c0.314-0.352,32.058-35.546,84.109-70.279c30.572-20.401,62.068-36.656,93.612-48.314     c39.438-14.576,79.063-21.967,117.774-21.967c47.341,0,94.018,11.077,138.734,32.923l0.096,0.047l0.057,0.09     c107.469,170.564,236.878,292.474,384.633,362.341c115.492,54.611,205.486,58.855,230.317,58.855     c4.341,0,6.686-0.131,6.709-0.132l0.917-0.053l-0.619,0.68c-38.223,41.951-97.749,79.757-167.614,106.453     C977.322,2071.332,899.518,2085.855,824.227,2085.855z" stroke-width="1px" opacity="1"></path><path d="M455.997,1483.028c43.734,0.005,90.414,9.358,138.57,32.885     c255.046,404.783,565.971,421.371,615.268,421.371c4.405,0,6.73-0.133,6.73-0.133c-78.211,85.842-237.597,148.33-392.338,148.33     c-136.068,0-268.552-48.343-339.003-171.632c-150.57-263.498-324.443-290.385-324.443-290.385S286.477,1483.01,455.997,1483.028      M455.997,1482.278h-0.032c-38.752,0-78.417,7.398-117.892,21.99c-31.568,11.668-63.087,27.937-93.68,48.354     c-52.084,34.759-83.855,69.989-84.17,70.341l-0.921,1.03l1.366,0.212c0.434,0.067,44.095,7.176,105.559,46.329     c56.737,36.142,140.673,107.757,218.347,243.687c33.399,58.448,82.261,102.979,145.229,132.357     c28.649,13.366,60.212,23.513,93.814,30.159c31.854,6.3,65.704,9.494,100.611,9.494c37.927,0,76.863-3.741,115.725-11.118     c37.62-7.142,74.431-17.54,109.41-30.905c34.681-13.252,66.666-29.076,95.066-47.031c28.896-18.27,53.353-38.295,72.692-59.52     l1.238-1.358l-1.835,0.105c-0.023,0.001-2.36,0.132-6.688,0.132c-24.811,0-114.735-4.242-230.157-58.82     c-147.689-69.836-277.045-191.698-384.476-362.201l-0.114-0.18l-0.192-0.094C550.138,1493.372,503.405,1482.283,455.997,1482.278     L455.997,1482.278z" stroke-width="1px" opacity="1"></path></g><g><path d="M1698.804,1258.046c-29.531-32.108-56.412-67.534-82.408-101.793c-61.076-80.489-118.759-156.515-199.07-174.122     c-80.312,17.607-137.995,93.633-199.07,174.122c-25.996,34.259-52.877,69.685-82.409,101.793l-0.326,0.355l-0.264-0.404     c-58.677-89.844-99.559-114.101-208.819-178.929c-21.146-12.547-45.114-26.768-72.152-43.226l-0.17-0.104l-0.009-0.199     c-3.966-83.283,6.523-154.126,31.176-210.563c29.198-66.842,79.094-115.531,148.303-144.716     c70.312-29.649,170.83-110.898,242.772-173.837c77.963-68.205,140.085-130.19,140.704-130.808l0.265-0.265l0.265,0.265     c0.619,0.618,62.745,62.606,140.708,130.811c71.941,62.938,172.458,144.186,242.767,173.834     c69.209,29.185,119.105,77.874,148.304,144.716c24.653,56.436,35.143,127.279,31.177,210.563l-0.01,0.199l-0.17,0.104     c-27.04,16.459-51.008,30.68-72.154,43.227c-109.26,64.828-150.142,89.084-208.817,178.929l-0.265,0.404L1698.804,1258.046z" stroke-width="1px" opacity="1"></path><path d="M1417.325,375.882c0,0,247.397,247.292,383.595,304.725c148.778,62.738,186.42,204.345,179.25,354.915     c-164.91,100.38-210.85,114.72-281.09,222.27c-98.92-107.55-167.035-250.95-281.755-276.045     c-114.72,25.095-182.835,168.495-281.755,276.045c-70.24-107.55-116.18-121.89-281.09-222.27     c-7.17-150.57,30.473-292.178,179.25-354.915C1169.932,623.173,1417.325,375.882,1417.325,375.882 M1417.325,374.821l-0.53,0.53     c-0.618,0.618-62.738,62.6-140.692,130.797c-71.92,62.918-172.4,144.139-242.664,173.768     c-35.897,15.137-66.857,35.631-92.022,60.911c-23.396,23.504-42.399,51.766-56.479,84     c-12.947,29.64-22.079,63.432-27.139,100.439c-4.587,33.539-5.955,70.646-4.067,110.292l0.019,0.398l0.34,0.207     c27.04,16.459,51.008,30.68,72.155,43.227c109.206,64.796,150.068,89.041,208.697,178.813l0.527,0.807l0.653-0.71     c29.544-32.121,56.431-67.555,82.432-101.821c61.01-80.403,118.64-156.35,198.771-173.964     c80.131,17.614,137.761,93.561,198.771,173.964c26.002,34.267,52.889,69.7,82.433,101.822l0.653,0.71l0.527-0.807     c58.629-89.772,99.491-114.017,208.697-178.813c21.147-12.547,45.115-26.768,72.155-43.227l0.34-0.207l0.019-0.398     c1.888-39.646,0.519-76.754-4.067-110.292c-5.061-37.006-14.192-70.799-27.139-100.439c-14.081-32.235-33.083-60.496-56.48-84     c-25.165-25.28-56.125-45.774-92.022-60.911c-70.264-29.63-170.747-110.853-242.67-173.774     c-77.954-68.197-140.069-130.173-140.687-130.791L1417.325,374.821L1417.325,374.821z" stroke-width="1px" opacity="1"></path></g><g><path d="M1698.66,1869.41l0.141-0.48c11.271-38.442,22.182-70.89,31.808-99.518c45.159-134.299,65.77-195.595-12.504-470.289     l-0.047-0.163l0.092-0.143c0.377-0.587,38.46-59.348,104.044-117.345c38.522-34.066,78.858-61.21,119.886-80.679     c51.296-24.34,103.823-36.682,156.124-36.682c97.556,0,195.431,42.755,290.906,127.077l0.292,0.258l-0.269,0.282     c-150.292,157.364-173.392,181.551-220.396,317.137c-12.012,34.648-33.002,73.76-60.701,113.104     c-29.814,42.349-66.226,83.02-105.296,117.614c-44.434,39.343-91.433,70.432-139.69,92.402     c-54.547,24.833-109.687,37.424-163.889,37.424H1698.66z" stroke-width="1px" opacity="1"></path><path d="M2098.203,1064.487c86.917,0,185.136,33.789,290.658,126.983     c-152.363,159.533-173.873,182.835-220.478,317.273c-46.605,134.438-239.366,360.293-469.222,360.293     c64.117-218.685,114.307-236.61,19.304-570.016C1718.465,1299.02,1869.157,1064.487,2098.203,1064.487 M2098.203,1063.737     c-52.357,0-104.938,12.354-156.284,36.718c-41.06,19.483-81.425,46.647-119.974,80.736     c-65.622,58.031-103.733,116.836-104.111,117.423l-0.183,0.285l0.093,0.326c78.241,274.584,57.642,335.844,12.509,470.068     c-9.627,28.631-20.539,61.082-31.812,99.531l-0.282,0.961h1.001c54.256,0,109.449-12.603,164.044-37.458     c48.292-21.986,95.323-53.095,139.784-92.463c39.092-34.614,75.523-75.307,105.354-117.679     c27.72-39.373,48.727-78.516,60.749-113.198c46.976-135.508,70.068-159.687,220.312-317l0.539-0.564l-0.584-0.516     c-50.169-44.308-101.483-77.472-152.516-98.57C2190.938,1073.359,2144.293,1063.737,2098.203,1063.737L2098.203,1063.737z" stroke-width="1px" opacity="1"></path></g><g><path d="M2010.423,2085.855c-75.284-0.003-153.088-14.528-224.998-42.005c-69.872-26.698-129.399-64.502-167.617-106.447     l-0.619-0.68l0.918,0.053c0.023,0.001,2.362,0.132,6.709,0.132c24.833,0,114.833-4.245,230.335-58.866     c147.749-69.869,277.151-191.774,384.615-362.33l0.057-0.09l0.096-0.047c44.717-21.846,91.394-32.923,138.734-32.923     c38.707,0,78.329,7.391,117.766,21.967c31.544,11.658,63.04,27.913,93.613,48.314c52.055,34.733,83.803,69.928,84.117,70.279     l0.461,0.515l-0.683,0.105c-0.435,0.067-44.139,7.176-105.659,46.355c-56.784,36.163-140.789,107.823-218.517,243.845     c-33.364,58.388-82.169,102.87-145.059,132.212c-56.333,26.283-121.687,39.61-194.244,39.61     C2010.439,2085.855,2010.432,2085.855,2010.423,2085.855z" stroke-width="1px" opacity="1"></path><path d="M2378.653,1483.028c169.5,0,295.216,140.435,295.216,140.435s-173.873,26.888-324.443,290.385     c-70.46,123.305-202.916,171.632-339.003,171.632c-154.724,0-314.135-62.498-392.338-148.33c0,0,2.319,0.133,6.73,0.133     c49.328,0,360.238-16.614,615.268-421.371C2288.254,1492.379,2334.908,1483.028,2378.653,1483.028 M2378.653,1482.278     c-47.399,0-94.131,11.09-138.899,32.961l-0.192,0.094l-0.114,0.18c-107.425,170.494-236.775,292.352-384.458,362.191     c-115.432,54.587-205.362,58.83-230.175,58.83c-4.333,0-6.665-0.13-6.688-0.132l-1.835-0.105l1.238,1.359     c19.336,21.222,43.792,41.246,72.69,59.516c28.4,17.955,60.387,33.779,95.07,47.032c34.981,13.366,71.793,23.765,109.413,30.908     c38.863,7.378,77.797,11.12,115.72,11.12c34.913,0,68.765-3.194,100.618-9.492c33.602-6.644,65.164-16.79,93.811-30.155     c62.962-29.375,111.823-73.908,145.225-132.363c77.704-135.982,161.676-207.605,218.437-243.744     c61.446-39.122,105.036-46.206,105.469-46.272l1.366-0.211l-0.922-1.03c-0.315-0.352-32.095-35.582-84.188-70.341     c-30.598-20.417-62.121-36.686-93.691-48.354C2457.07,1489.676,2417.404,1482.278,2378.653,1482.278L2378.653,1482.278z" stroke-width="1px" opacity="1"></path></g></g><g><g><path d="M1412.911,2277.986c-1.112-1.147-111.43-115.679-130.946-192.413c-4.524-17.789-1.653-34.806,8.535-50.577     c8.133-12.592,20.921-24.416,38.01-35.146c29.063-18.247,60.951-27.124,61.27-27.211l0.048-0.014h46.707l0.049,0.014     c0.318,0.087,32.206,8.964,61.269,27.211c17.089,10.729,29.878,22.554,38.011,35.146c10.188,15.771,13.06,32.788,8.535,50.577     c-19.517,76.734-129.835,191.266-130.947,192.413l-0.27,0.278L1412.911,2277.986z" stroke-width="1px" opacity="1"></path><path d="M1436.483,1973c0,0,127.268,34.954,107.55,112.479s-130.853,192.246-130.853,192.246     s-111.135-114.72-130.853-192.246c-19.717-77.526,107.55-112.479,107.55-112.479h23.302H1436.483 M1436.584,1972.25h-0.101     h-23.302h-23.302h-0.101l-0.098,0.027c-0.319,0.088-32.26,8.979-61.369,27.256c-17.136,10.759-29.963,22.622-38.126,35.259     c-10.246,15.863-13.134,32.979-8.583,50.873c10.218,40.175,45.315,90.408,72.958,125.475     c29.926,37.962,57.804,66.821,58.083,67.108l0.539,0.556l0.539-0.556c0.278-0.287,28.156-29.146,58.083-67.108     c27.643-35.066,62.74-85.3,72.958-125.475c4.551-17.894,1.663-35.01-8.583-50.873c-8.163-12.637-20.99-24.5-38.126-35.259     c-29.109-18.277-61.05-27.168-61.369-27.256L1436.584,1972.25L1436.584,1972.25z" stroke-width="1px" opacity="1"></path></g><g><g><path d="M521.936,2385.22c8.053-53.15,21.406-95.385,40.821-129.115c17.45-30.314,39.544-53.191,67.544-69.938      c52.276-31.266,117.107-36.244,185.745-41.515c46.753-3.591,95.097-7.304,141.742-19.65      c94.379-24.982,158.02-67.482,194.788-98.735c39.826-33.852,57.558-62.144,57.732-62.425l0.08-0.129l0.146-0.037      c9.385-2.394,18.883-3.606,28.232-3.606c37.274,0,62.064,19.239,62.683,24.262c0.099,0.805-0.304,1.381-1.106,1.582      c-1.114,0.278-5.696,5.903-12.037,13.688c-32.27,39.622-130.47,160.195-281.903,212.157l-0.072,0.024l-0.076-0.005      c-26.922-1.846-49.895-2.743-70.231-2.743c-97.078,0-116.129,20.401-144.968,51.284      c-32.752,35.073-77.608,83.106-268.669,125.324l-0.534,0.118L521.936,2385.22z" stroke-width="1px" opacity="1"></path><path d="M1238.766,1960.443c41.392,0,67.406,23.625,61.486,25.105c-7.17,1.792-111.135,163.118-293.97,225.855      c-27.187-1.864-50.331-2.744-70.257-2.744c-209.981,0-58.075,98.034-413.718,176.617      c44.813-295.763,252.743-211.515,435.578-259.913c182.835-48.398,252.743-161.325,252.743-161.325      C1220.591,1961.497,1230.02,1960.443,1238.766,1960.443 M1238.766,1959.693c-9.38,0-18.91,1.217-28.324,3.618l-0.293,0.075      l-0.159,0.257c-0.174,0.282-17.91,28.565-57.712,62.384c-36.733,31.212-100.309,73.655-194.585,98.611      c-46.612,12.338-94.939,16.05-141.675,19.639c-68.683,5.274-133.557,10.257-185.908,41.567      c-28.057,16.781-50.194,39.702-67.677,70.073c-19.439,33.771-32.807,76.048-40.867,129.246l-0.164,1.081l1.067-0.236      c191.175-42.242,236.077-90.325,268.862-125.434c28.772-30.811,47.78-51.165,144.694-51.165c20.328,0,43.293,0.897,70.206,2.743      l0.151,0.01l0.143-0.049c64.677-22.193,127.072-59.335,185.451-110.394c47.427-41.479,80.652-82.275,96.62-101.88      c6.022-7.394,10.778-13.234,11.841-13.564c0.988-0.247,1.506-0.991,1.383-1.991c-0.358-2.906-6.765-8.958-17.935-14.451      C1274.479,1965.207,1259.015,1959.693,1238.766,1959.693L1238.766,1959.693z" stroke-width="1px" opacity="1"></path></g><g><path d="M986.191,2449.775c3.685-45.441,19.09-91.264,45.789-136.195c21.352-35.934,49.934-71.382,84.953-105.359      c59.617-57.844,118.02-91.809,118.603-92.146l0.321-0.185l0.189,0.318c28.323,47.796,87.171,101.55,87.762,102.087l0.447,0.406      l-0.563,0.221c-0.47,0.184-47.788,18.803-112.666,56.446c-59.874,34.74-147.37,93.248-224.188,174.693l-0.733,0.777      L986.191,2449.775z" stroke-width="1px" opacity="1"></path><path d="M1235.723,2116.401c28.68,48.397,87.833,102.173,87.833,102.173s-188.213,73.493-336.99,231.233      C1002.697,2250.838,1235.723,2116.401,1235.723,2116.401 M1235.99,2115.381l-0.642,0.37      c-0.583,0.337-59.027,34.325-118.677,92.201c-35.042,34-63.645,69.474-85.014,105.437      c-26.728,44.981-42.151,90.858-45.84,136.357l-0.173,2.129l1.466-1.554c76.792-81.418,164.262-139.906,224.118-174.635      c64.85-37.626,112.13-56.23,112.6-56.414l1.127-0.44l-0.895-0.813c-0.591-0.537-59.399-54.256-87.692-102L1235.99,2115.381      L1235.99,2115.381z" stroke-width="1px" opacity="1"></path></g></g><g><g><path d="M1839.523,2459.025c-76.823-81.45-164.325-139.96-224.203-174.701c-64.874-37.641-112.181-56.255-112.651-56.438      l-0.563-0.221l0.448-0.406c0.591-0.537,59.439-54.292,87.762-102.087l0.188-0.318l0.321,0.185      c0.583,0.337,58.986,34.302,118.603,92.146c35.02,33.978,63.602,69.426,84.953,105.359      c26.699,44.932,42.104,90.754,45.789,136.195l0.086,1.064L1839.523,2459.025z" stroke-width="1px" opacity="1"></path><path d="M1590.638,2125.363c0,0,233.025,134.438,249.158,333.405c-148.778-157.74-336.99-231.233-336.99-231.233      S1561.958,2173.761,1590.638,2125.363 M1590.37,2124.343l-0.378,0.638c-28.293,47.744-87.101,101.463-87.692,102l-0.895,0.813      l1.127,0.44c0.47,0.184,47.772,18.798,112.628,56.43c59.848,34.726,147.306,93.21,224.09,174.619l1.466,1.554l-0.173-2.129      c-3.689-45.499-19.112-91.376-45.84-136.357c-21.369-35.962-49.972-71.436-85.014-105.437      c-59.65-57.876-118.093-91.865-118.677-92.201L1590.37,2124.343L1590.37,2124.343z" stroke-width="1px" opacity="1"></path></g><g><path d="M2312.262,2407.152c-191.062-42.217-235.917-90.251-268.669-125.324c-28.839-30.882-47.891-51.284-144.968-51.284      c-20.336,0-43.309,0.897-70.231,2.743l-0.075,0.005l-0.072-0.024c-151.433-51.962-249.633-172.535-281.903-212.156      c-6.341-7.786-10.922-13.411-12.036-13.689c-0.802-0.201-1.205-0.777-1.105-1.582c0.618-5.022,25.409-24.262,62.683-24.262      c9.349,0,18.848,1.213,28.231,3.606l0.146,0.037l0.079,0.129c0.175,0.282,17.925,28.594,57.761,62.449      c36.765,31.244,100.398,73.732,194.76,98.711c46.646,12.347,94.989,16.06,141.742,19.65      c68.638,5.271,133.469,10.25,185.745,41.515c28,16.747,50.094,39.624,67.543,69.939c19.416,33.73,32.769,75.964,40.822,129.114      l0.081,0.541L2312.262,2407.152z" stroke-width="1px" opacity="1"></path><path d="M1595.883,1981.953c8.746,0,18.176,1.054,28.139,3.595c0,0,69.908,112.927,252.743,161.325      c182.835,48.397,390.765-35.85,435.578,259.913c-355.643-78.583-203.737-176.604-413.718-176.617      c-19.926-0.001-43.07,0.88-70.257,2.744c-182.835-62.738-286.8-224.063-293.97-225.855      C1528.478,2005.578,1554.492,1981.954,1595.883,1981.953 M1595.886,1981.203v0.75V1981.203h-0.003      c-20.249,0-35.713,5.515-45.119,10.141c-11.17,5.493-17.578,11.545-17.935,14.45c-0.123,0.999,0.395,1.744,1.387,1.992      c1.059,0.329,5.816,6.169,11.838,13.563c15.967,19.605,49.193,60.4,96.62,101.88c58.38,51.059,120.775,88.201,185.451,110.395      l0.143,0.049l0.151-0.01c26.913-1.845,49.865-2.742,70.165-2.742c96.954,0.006,115.962,20.36,144.734,51.169      c32.785,35.107,77.686,83.187,268.863,125.43l1.067,0.236l-0.164-1.08c-8.06-53.198-21.428-95.474-40.867-129.246      c-17.482-30.372-39.619-53.293-67.676-70.073c-52.352-31.311-117.226-36.293-185.908-41.567      c-46.736-3.589-95.063-7.301-141.675-19.639c-94.311-24.965-157.902-67.43-194.641-98.658      c-39.781-33.814-57.482-62.056-57.656-62.337l-0.159-0.257l-0.293-0.075C1614.793,1982.42,1605.264,1981.203,1595.886,1981.203      L1595.886,1981.203z" stroke-width="1px" opacity="1"></path></g></g></g><g><path d="M1413.042,1950.047c-0.72-0.285-72.84-29.258-144.412-94.104c-42.039-38.089-75.671-80.922-99.961-127.307    c-30.365-57.985-46.133-121.714-46.865-189.417c-0.732-67.695,14.121-136.979,44.147-205.925    c24.017-55.147,57.74-110.204,100.232-163.64c70.772-89,142.834-144.003,146.622-146.866v-3.87l0.599,0.448    c0.736,0.549,74.428,56.003,146.772,146.979c42.493,53.436,76.216,108.493,100.232,163.64    c30.026,68.946,44.88,138.229,44.147,205.925c-0.732,67.702-16.5,131.431-46.864,189.416    c-24.291,46.385-57.923,89.218-99.962,127.307c-69.515,62.983-139.547,92.125-144.175,94.01v3.607L1413.042,1950.047z" stroke-width="1px" opacity="1"></path><path d="M1413.18,1019.666c0,0,294.208,219.686,291.001,516.24c-3.207,296.552-291.001,410.483-291.001,410.483    v3.308c0,0-287.795-113.929-291.001-410.483s291.001-516.24,291.001-516.24V1019.666 M1412.43,1018.17v1.496v2.935    c-5.231,3.97-76.52,58.766-146.54,146.819c-42.513,53.462-76.253,108.546-100.283,163.724    c-30.047,68.995-44.911,138.33-44.178,206.079c0.733,67.762,16.515,131.548,46.907,189.587    c24.311,46.424,57.97,89.291,100.042,127.41c37.424,33.908,74.718,57.704,99.414,71.695c26.767,15.165,44.931,22.408,45.112,22.48    l1.026,0.406v-1.104v-2.803c3.026-1.239,20.266-8.48,44.638-22.288c24.696-13.992,61.99-37.788,99.414-71.696    c42.072-38.119,75.731-80.986,100.042-127.41c30.393-58.038,46.175-121.824,46.907-189.586    c0.733-67.749-14.131-137.084-44.179-206.079c-24.03-55.178-57.77-110.262-100.283-163.724    c-72.374-91.014-146.105-146.497-146.842-147.047L1412.43,1018.17L1412.43,1018.17z" stroke-width="1px" opacity="1"></path></g></g></g></g></g><g class="sampleTexts_1" transform="scale(1) translate(0,-4.130010986328131)"><g class="logo--name svgLogoName_1 logoNameBox" transform="scale(1) translate(159.52500343322754,317.7000030517578)" fill="#ffffff"><path d="M18.82-0.15L18.82-0.15L18.82-0.15Q18.82 0 18.75 0L18.75 0L8.40 0L8.40 0Q7.13 0 6.45-1.01L6.45-1.01L6.45-1.01Q5.77-2.02 5.77-3.30L5.77-3.30L5.77-17.32L5.77-17.32Q-10.28-17.85-19.57-24.15L-19.57-24.15L-19.57-24.15Q-28.88-30.45-28.88-41.02L-28.88-41.02L-28.88-41.02Q-28.88-51.23-19.99-57.60L-19.99-57.60L-19.99-57.60Q-11.10-63.97 2.55-63.97L2.55-63.97L2.55-63.97Q11.55-63.97 18.71-61.05L18.71-61.05L18.71-61.05Q25.88-58.13 28.43-52.57L28.43-52.57L28.43-52.57Q49.95-50.40 49.95-36.07L49.95-36.07L49.95-36.07Q49.95-26.93 41.51-22.57L41.51-22.57L41.51-22.57Q33.07-18.22 16.80-17.47L16.80-17.47L16.80-6.67L16.80-6.67Q16.80-5.40 17.14-4.24L17.14-4.24L17.14-4.24Q17.47-3.07 18.15-1.65L18.15-1.65L18.15-1.65Q18.82-0.22 18.82-0.15ZM5.77-32.32L5.77-32.32L5.77-45.30L5.77-45.30Q5.77-46.57 5.44-47.74L5.44-47.74L5.44-47.74Q5.10-48.90 4.42-50.32L4.42-50.32L4.42-50.32Q3.75-51.75 3.75-51.82L3.75-51.82L3.75-51.82Q3.67-51.98 3.82-51.98L3.82-51.98L3.82-51.98Q11.17-53.02 19.57-53.02L19.57-53.02L19.57-53.02Q23.93-53.02 27-52.73L27-52.73L27-52.73Q24.45-57.67 17.93-60.30L17.93-60.30L17.93-60.30Q11.40-62.92 2.55-62.92L2.55-62.92L2.55-62.92Q-3.07-62.92-8.29-61.61L-8.29-61.61L-8.29-61.61Q-13.50-60.30-17.89-57.71L-17.89-57.71L-17.89-57.71Q-22.27-55.13-24.94-50.77L-24.94-50.77L-24.94-50.77Q-27.60-46.42-27.60-40.95L-27.60-40.95L-27.60-40.95Q-27.60-31.20-19.16-25.13L-19.16-25.13L-19.16-25.13Q-10.72-19.05 5.77-18.38L5.77-18.38L5.77-31.35L5.77-31.35Q-1.80-31.57-5.96-34.20L-5.96-34.20L-5.96-34.20Q-10.13-36.82-10.13-41.85L-10.13-41.85L-10.13-41.85Q-10.13-43.65-9.19-45.26L-9.19-45.26L-9.19-45.26Q-8.25-46.88-7.35-46.88L-7.35-46.88L-7.35-46.88Q-7.13-46.80-7.13-46.65L-7.13-46.65L-7.13-46.65Q-7.13-46.50-7.35-46.27L-7.35-46.27L-7.35-46.27Q-8.92-44.77-8.92-41.70L-8.92-41.70L-8.92-41.70Q-8.92-37.57-5.29-35.06L-5.29-35.06L-5.29-35.06Q-1.65-32.55 5.77-32.32ZM38.85-35.85L38.85-35.85L38.85-35.85Q38.85-42.30 36.56-45.94L36.56-45.94L36.56-45.94Q34.27-49.57 29.10-50.92L29.10-50.92L29.10-50.92Q29.70-48.90 29.70-46.88L29.70-46.88L29.70-46.88Q29.70-35.48 16.80-32.32L16.80-32.32L16.80-18.52L16.80-18.52Q22.72-18.97 26.89-20.18L26.89-20.18L26.89-20.18Q31.05-21.38 33.34-22.88L33.34-22.88L33.34-22.88Q35.63-24.38 36.90-26.70L36.90-26.70L36.90-26.70Q38.17-29.02 38.51-31.01L38.51-31.01L38.51-31.01Q38.85-33 38.85-35.85ZM20.40-51.90L20.40-51.90L20.40-51.90Q18.68-51.90 17.74-51.26L17.74-51.26L17.74-51.26Q16.80-50.63 16.80-49.80L16.80-49.80L16.80-33.38L16.80-33.38Q28.43-36.30 28.43-46.80L28.43-46.80L28.43-46.80Q28.43-48.98 27.68-51.23L27.68-51.23L27.68-51.23Q24.52-51.90 20.40-51.90ZM82.75-28.35L82.75-25.13L82.75-25.13Q82.75-22.80 82.11-21.07L82.11-21.07L82.11-21.07Q81.47-19.35 79.97-18.34L79.97-18.34L79.97-18.34Q78.47-17.32 77.13-16.72L77.13-16.72L77.13-16.72Q75.77-16.13 73.11-15.86L73.11-15.86L73.11-15.86Q70.45-15.60 68.84-15.56L68.84-15.56L68.84-15.56Q67.22-15.52 64.00-15.52L64.00-15.52L64.00-15.52Q63.77-15.52 63.66-15.45L63.66-15.45L63.66-15.45Q63.55-15.38 63.47-15.30L63.47-15.30L63.47-15.22L63.47-15.22Q63.47-3.67 73.90-3.67L73.90-3.67L73.90-3.67Q77.05-3.67 79.30-4.16L79.30-4.16L79.30-4.16Q81.55-4.65 82.56-5.21L82.56-5.21L82.56-5.21Q83.57-5.77 84.85-6.75L84.85-6.75L84.85-6.75Q85.82-7.50 87.47-9.22L87.47-9.22L87.47-9.22Q89.13-10.95 89.95-12.22L89.95-12.22L89.95-12.22Q90.55-12.15 90.55-11.55L90.55-11.55L90.55-11.55Q90.55-11.17 89.42-9.82L89.42-9.82L89.42-9.82Q88.30-8.47 86.20-6.64L86.20-6.64L86.20-6.64Q84.10-4.80 81.47-3.04L81.47-3.04L81.47-3.04Q78.85-1.27 75.40-0.04L75.40-0.04L75.40-0.04Q71.95 1.20 68.65 1.20L68.65 1.20L68.65 1.20Q66.55 1.20 64.71 0.82L64.71 0.82L64.71 0.82Q62.87 0.45 60.74-0.75L60.74-0.75L60.74-0.75Q58.60-1.95 57.10-3.90L57.10-3.90L57.10-3.90Q55.60-5.85 54.59-9.38L54.59-9.38L54.59-9.38Q53.57-12.90 53.57-17.63L53.57-17.63L53.57-17.63Q53.57-27.07 57.40-31.99L57.40-31.99L57.40-31.99Q61.22-36.90 70-36.90L70-36.90L70-36.90Q73.97-36.90 77.88-35.66L77.88-35.66L77.88-35.66Q81.77-34.42 82.38-33.30L82.38-33.30L82.38-33.30Q82.75-32.25 82.75-28.35L82.75-28.35ZM63.40-17.32L63.40-17.32L63.40-17.32Q63.40-16.43 65.72-16.43L65.72-16.43L65.72-16.43Q68.42-16.43 70.15-17.21L70.15-17.21L70.15-17.21Q71.88-18 72.63-19.43L72.63-19.43L72.63-19.43Q73.38-20.85 73.64-22.13L73.64-22.13L73.64-22.13Q73.90-23.40 73.90-25.13L73.90-25.13L73.90-25.13Q73.90-33.75 73.30-34.95L73.30-34.95L73.30-34.95Q73-35.92 70.30-35.92L70.30-35.92L70.30-35.92Q66.32-35.92 64.82-32.59L64.82-32.59L64.82-32.59Q63.32-29.25 63.32-20.32L63.32-20.32L63.32-20.32Q63.32-17.93 63.40-17.32ZM91.63-34.57L88.17-34.57L88.17-35.55L91.63-35.55L91.63-44.77L91.63-44.77Q91.63-46.05 90.13-49.05L90.13-49.05L90.20-49.27L90.20-49.27Q91.47-50.17 94.89-51.38L94.89-51.38L94.89-51.38Q98.30-52.57 100.70-52.57L100.70-52.57L100.70-35.55L105.80-35.55L105.80-35.55Q105.80-35.10 105.50-34.84L105.50-34.84L105.50-34.84Q105.20-34.57 104.97-34.57L104.97-34.57L100.70-34.57L100.70-7.35L100.70-7.35Q100.70-3.75 103.77-3.75L103.77-3.75L103.77-3.75Q105.50-3.75 107.86-6L107.86-6L107.86-6Q110.22-8.25 111.95-10.72L111.95-10.72L111.95-10.72Q112.40-10.65 112.40-10.05L112.40-10.05L112.40-10.05Q112.40-9.45 109.96-6.75L109.96-6.75L109.96-6.75Q107.52-4.05 103.77-1.43L103.77-1.43L103.77-1.43Q100.02 1.20 97.33 1.20L97.33 1.20L97.33 1.20Q91.63 1.20 91.63-4.50L91.63-4.50L91.63-34.57ZM131.40-7.50L131.17-7.27L131.17-7.27Q129.52-4.88 126.34-1.99L126.34-1.99L126.34-1.99Q123.15 0.90 120.67 0.90L120.67 0.90L120.67 0.90Q116.32 0.90 113.92-1.91L113.92-1.91L113.92-1.91Q111.52-4.72 111.52-10.42L111.52-10.42L111.52-10.42Q111.52-23.70 131.47-23.70L131.47-23.70L131.47-31.88L131.47-31.88Q131.47-35.48 127.20-35.48L127.20-35.48L127.20-35.48Q122.77-35.48 122.77-32.17L122.77-32.17L122.77-30L122.77-30Q122.77-27.52 121.20-26.74L121.20-26.74L121.20-26.74Q119.62-25.95 116.40-25.95L116.40-25.95L113.40-26.02L113.40-34.13L113.40-34.13Q114.75-35.02 118.39-35.70L118.39-35.70L118.39-35.70Q122.02-36.38 126.60-36.38L126.60-36.38L126.60-36.38Q134.47-36.38 137.51-34.35L137.51-34.35L137.51-34.35Q140.55-32.32 140.55-28.13L140.55-28.13L140.55-7.27L140.55-7.27Q140.55-5.25 141-4.46L141-4.46L141-4.46Q141.45-3.67 142.65-3.67L142.65-3.67L142.65-3.67Q145.65-3.67 150.82-10.72L150.82-10.72L150.82-10.72Q151.27-10.57 151.27-10.05L151.27-10.05L151.27-10.05Q151.27-9.53 148.91-6.86L148.91-6.86L148.91-6.86Q146.55-4.20 142.84-1.54L142.84-1.54L142.84-1.54Q139.13 1.13 136.35 1.13L136.35 1.13L136.35 1.13Q135.07 1.13 134.17 0.90L134.17 0.90L134.17 0.90Q133.27 0.67 132.38-0.64L132.38-0.64L132.38-0.64Q131.47-1.95 131.47-4.42L131.47-4.42L131.47-7.27L131.47-7.27Q131.47-7.50 131.40-7.50L131.40-7.50ZM128.85-22.80L128.85-22.80L128.85-22.80Q121.35-22.80 121.35-12.22L121.35-12.22L121.35-12.22Q121.35-4.35 125.85-4.35L125.85-4.35L125.85-4.35Q127.80-4.35 129.64-6.64L129.64-6.64L129.64-6.64Q131.47-8.92 131.47-10.05L131.47-10.05L131.47-22.27L131.47-22.27Q131.40-22.80 128.85-22.80ZM160.15-55.95L160.15-7.35L160.15-7.35Q160.15-5.47 160.71-4.72L160.71-4.72L160.71-4.72Q161.27-3.97 162.47-3.97L162.47-3.97L162.47-3.97Q165.47-3.97 170.35-10.72L170.35-10.72L170.35-10.72Q170.80-10.57 170.80-10.05L170.80-10.05L170.80-10.05Q170.80-9.67 169.34-7.91L169.34-7.91L169.34-7.91Q167.87-6.15 165.77-4.13L165.77-4.13L165.77-4.13Q163.67-2.10 160.90-0.49L160.90-0.49L160.90-0.49Q158.12 1.13 156.02 1.13L156.02 1.13L156.02 1.13Q155.12 1.13 154.45 0.97L154.45 0.97L154.45 0.97Q153.77 0.82 152.91 0.34L152.91 0.34L152.91 0.34Q152.05-0.15 151.56-1.43L151.56-1.43L151.56-1.43Q151.07-2.70 151.07-4.58L151.07-4.58L151.07-48.07L151.07-48.07Q151.07-49.57 149.65-52.20L149.65-52.20L149.65-52.20Q149.50-52.42 149.57-52.50L149.57-52.50L149.57-52.50Q150.62-53.40 154.15-54.67L154.15-54.67L154.15-54.67Q157.67-55.95 160.15-55.95L160.15-55.95ZM189.82-39.45L189.82-39.45L189.82-44.63L189.82-44.63Q189.82-45.60 189.56-46.65L189.56-46.65L189.56-46.65Q189.30-47.70 189.04-48.38L189.04-48.38L189.04-48.38Q188.77-49.05 188.32-49.95L188.32-49.95L188.32-49.95Q187.88-50.85 187.80-51.07L187.80-51.07L187.80-51.07Q187.72-51.30 187.88-51.30L187.88-51.30L210.75-51.30L210.75-51.30Q212.63-51.30 214.50-51.11L214.50-51.11L214.50-51.11Q216.38-50.92 218.81-50.25L218.81-50.25L218.81-50.25Q221.25-49.57 223.09-48.49L223.09-48.49L223.09-48.49Q224.92-47.40 226.20-45.41L226.20-45.41L226.20-45.41Q227.47-43.42 227.47-40.73L227.47-40.73L227.47-40.73Q227.47-29.17 209.40-29.17L209.40-29.17L209.40-29.17Q208.20-29.17 208.20-29.70L208.20-29.70L208.20-29.70Q208.20-29.92 209.17-30.07L209.17-30.07L209.17-30.07Q216.30-31.42 216.30-40.57L216.30-40.57L216.30-40.57Q216.30-46.42 213.52-48.34L213.52-48.34L213.52-48.34Q210.75-50.25 205.65-50.25L205.65-50.25L205.65-50.25Q200.77-50.25 200.77-48.67L200.77-48.67L200.77-39.45L200.77-39.45Q206.55-38.70 208.13-36.30L208.13-36.30L208.13-36.30Q208.35-35.85 208.35-35.55L208.35-35.55L208.35-35.55Q208.35-35.25 208.05-35.25L208.05-35.25L208.05-35.25Q207.82-35.25 207.52-35.70L207.52-35.70L207.52-35.70Q205.35-37.88 200.77-38.48L200.77-38.48L200.77-27L200.77-27Q208.95-26.93 215.47-25.16L215.47-25.16L215.47-25.16Q222-23.40 226.13-19.61L226.13-19.61L226.13-19.61Q230.25-15.82 230.25-10.50L230.25-10.50L230.25-10.50Q230.25-1.43 221.77 3.64L221.77 3.64L221.77 3.64Q213.30 8.70 196.72 8.70L196.72 8.70L196.72 8.70Q187.57 8.70 180.11 6.19L180.11 6.19L180.11 6.19Q172.65 3.67 167.85-1.91L167.85-1.91L167.85-1.91Q163.05-7.50 163.05-15.38L163.05-15.38L163.05-15.38Q163.05-24.97 170.36-31.61L170.36-31.61L170.36-31.61Q177.67-38.25 189.82-39.45ZM196.95 7.72L196.95 7.72L196.95 7.72Q202.27 7.72 206.32 6.52L206.32 6.52L206.32 6.52Q210.38 5.33 212.70 3.49L212.70 3.49L212.70 3.49Q215.02 1.65 216.49-0.90L216.49-0.90L216.49-0.90Q217.95-3.45 218.40-5.70L218.40-5.70L218.40-5.70Q218.85-7.95 218.85-10.35L218.85-10.35L218.85-10.35Q218.85-17.70 214.24-21.82L214.24-21.82L214.24-21.82Q209.63-25.95 200.77-26.02L200.77-26.02L200.77-6.67L200.77-6.67Q200.77-5.47 201.15-4.20L201.15-4.20L201.15-4.20Q201.52-2.92 202.13-1.69L202.13-1.69L202.13-1.69Q202.72-0.45 202.80-0.15L202.80-0.15L202.80 0L192.45 0L192.45 0Q191.17 0 190.50-1.01L190.50-1.01L190.50-1.01Q189.82-2.02 189.82-3.30L189.82-3.30L189.82-24.97L189.82-24.97Q180.38-22.80 180.38-15.75L180.38-15.75L180.38-15.75Q180.38-14.10 181.31-12.75L181.31-12.75L181.31-12.75Q182.25-11.40 183.75-10.80L183.75-10.80L183.75-10.80Q184.05-10.72 184.05-10.50L184.05-10.50L184.05-10.50Q184.05-10.28 183.38-10.28L183.38-10.28L183.38-10.28Q181.95-10.28 180.56-11.89L180.56-11.89L180.56-11.89Q179.17-13.50 179.17-15.60L179.17-15.60L179.17-15.60Q179.17-23.47 189.82-25.95L189.82-25.95L189.82-38.55L189.82-38.55Q178.72-37.35 171.49-31.27L171.49-31.27L171.49-31.27Q164.25-25.20 164.25-15.38L164.25-15.38L164.25-15.38Q164.25-12.53 165-9.67L165-9.67L165-9.67Q165.75-6.83 167.96-3.56L167.96-3.56L167.96-3.56Q170.17-0.30 173.63 2.10L173.63 2.10L173.63 2.10Q177.07 4.50 183.11 6.11L183.11 6.11L183.11 6.11Q189.15 7.72 196.95 7.72ZM246.25-55.95L246.25-7.35L246.25-7.35Q246.25-5.47 246.81-4.72L246.81-4.72L246.81-4.72Q247.38-3.97 248.57-3.97L248.57-3.97L248.57-3.97Q251.57-3.97 256.45-10.72L256.45-10.72L256.45-10.72Q256.90-10.57 256.90-10.05L256.90-10.05L256.90-10.05Q256.90-9.67 255.44-7.91L255.44-7.91L255.44-7.91Q253.97-6.15 251.88-4.13L251.88-4.13L251.88-4.13Q249.78-2.10 247-0.49L247-0.49L247-0.49Q244.22 1.13 242.13 1.13L242.13 1.13L242.13 1.13Q241.22 1.13 240.55 0.97L240.55 0.97L240.55 0.97Q239.88 0.82 239.01 0.34L239.01 0.34L239.01 0.34Q238.15-0.15 237.66-1.43L237.66-1.43L237.66-1.43Q237.18-2.70 237.18-4.58L237.18-4.58L237.18-48.07L237.18-48.07Q237.18-49.57 235.75-52.20L235.75-52.20L235.75-52.20Q235.60-52.42 235.68-52.50L235.68-52.50L235.68-52.50Q236.72-53.40 240.25-54.67L240.25-54.67L240.25-54.67Q243.78-55.95 246.25-55.95L246.25-55.95ZM266.38-36.98L266.38-7.42L266.38-7.42Q266.38-5.47 266.94-4.72L266.94-4.72L266.94-4.72Q267.50-3.97 268.70-3.97L268.70-3.97L268.70-3.97Q271.48-3.97 276.50-10.65L276.50-10.65L276.50-10.65Q276.95-10.57 276.95-10.05L276.95-10.05L276.95-10.05Q276.95-9.53 274.63-6.86L274.63-6.86L274.63-6.86Q272.30-4.20 268.63-1.54L268.63-1.54L268.63-1.54Q264.95 1.13 262.18 1.13L262.18 1.13L262.18 1.13Q261.28 1.13 260.60 0.97L260.60 0.97L260.60 0.97Q259.93 0.82 259.06 0.34L259.06 0.34L259.06 0.34Q258.20-0.15 257.75-1.39L257.75-1.39L257.75-1.39Q257.30-2.63 257.30-4.50L257.30-4.50L257.30-29.10L257.30-29.10Q257.30-30.75 255.73-33.30L255.73-33.30L255.73-33.30Q255.65-33.45 255.73-33.52L255.73-33.52L255.73-33.52Q256.78-34.42 260.30-35.70L260.30-35.70L260.30-35.70Q263.82-36.98 266.38-36.98L266.38-36.98ZM261.95-52.27L261.95-52.27L261.95-52.27Q264.43-52.27 265.81-50.96L265.81-50.96L265.81-50.96Q267.20-49.65 267.20-47.63L267.20-47.63L267.20-47.63Q267.20-46.57 266.90-45.67L266.90-45.67L266.90-45.67Q266.60-44.77 266.30-44.40L266.30-44.40L266-44.02L266-44.02Q264.13-44.02 261.76-43.46L261.76-43.46L261.76-43.46Q259.40-42.90 258.28-42.15L258.28-42.15L258.28-42.15Q258.20-42 258.05-42.15L258.05-42.15L258.05-42.15Q256.10-43.80 256.10-46.50L256.10-46.50L256.10-46.50Q256.10-48.98 257.71-50.63L257.71-50.63L257.71-50.63Q259.32-52.27 261.95-52.27ZM288.68 1.20L288.68 1.20L288.68 1.20Q280.05 1.20 275.48-0.75L275.48-0.75L275.48-12L275.48-12Q276.53-12.07 278.40-12.07L278.40-12.07L278.40-12.07Q281.85-12.07 283.35-11.21L283.35-11.21L283.35-11.21Q284.85-10.35 284.85-7.65L284.85-7.65L284.85-0.82L284.85-0.82Q284.85 0.22 289.05 0.22L289.05 0.22L289.05 0.22Q292.35 0.22 294.34-1.61L294.34-1.61L294.34-1.61Q296.33-3.45 296.33-7.20L296.33-7.20L296.33-7.20Q296.33-9.97 294.19-11.63L294.19-11.63L294.19-11.63Q292.05-13.28 289.05-14.10L289.05-14.10L289.05-14.10Q286.05-14.92 283.01-15.90L283.01-15.90L283.01-15.90Q279.98-16.88 277.84-19.20L277.84-19.20L277.84-19.20Q275.70-21.52 275.70-25.35L275.70-25.35L275.70-25.35Q275.70-28.72 277.13-31.16L277.13-31.16L277.13-31.16Q278.55-33.60 280.91-34.73L280.91-34.73L280.91-34.73Q283.28-35.85 285.45-36.34L285.45-36.34L285.45-36.34Q287.63-36.82 289.95-36.82L289.95-36.82L289.95-36.82Q299.33-36.82 303-35.32L303-35.32L303-26.32L303-26.32Q301.88-26.25 300.15-26.25L300.15-26.25L300.15-26.25Q297-26.25 295.54-27.04L295.54-27.04L295.54-27.04Q294.08-27.82 294.08-30.30L294.08-30.30L294.08-34.88L294.08-34.88Q294.08-35.85 289.95-35.85L289.95-35.85L289.95-35.85Q287.18-35.85 285.11-34.31L285.11-34.31L285.11-34.31Q283.05-32.77 283.05-29.32L283.05-29.32L283.05-29.32Q283.05-27.07 284.63-25.65L284.63-25.65L284.63-25.65Q286.20-24.22 288.56-23.59L288.56-23.59L288.56-23.59Q290.93-22.95 293.66-22.05L293.66-22.05L293.66-22.05Q296.40-21.15 298.76-20.14L298.76-20.14L298.76-20.14Q301.13-19.13 302.70-16.76L302.70-16.76L302.70-16.76Q304.28-14.40 304.28-10.95L304.28-10.95L304.28-10.95Q304.28-5.92 299.55-2.40L299.55-2.40L299.55-2.40Q299.33-2.25 299.33-2.17L299.33-2.17L299.55-2.10L299.55-2.10Q304.58-3.90 308.93-7.42L308.93-7.42L308.93-7.42Q311.40-9.30 313.13-11.70L313.13-11.70L313.13-11.70Q313.65-11.70 313.65-11.10L313.65-11.10L313.65-11.10Q313.65-10.20 309.08-6.38L309.08-6.38L309.08-6.38Q305.70-3.52 299.81-1.16L299.81-1.16L299.81-1.16Q293.93 1.20 288.68 1.20ZM324.85 1.20L324.85 1.20L324.85 1.20Q316.23 1.20 311.65-0.75L311.65-0.75L311.65-12L311.65-12Q312.70-12.07 314.58-12.07L314.58-12.07L314.58-12.07Q318.03-12.07 319.53-11.21L319.53-11.21L319.53-11.21Q321.03-10.35 321.03-7.65L321.03-7.65L321.03-0.82L321.03-0.82Q321.03 0.22 325.23 0.22L325.23 0.22L325.23 0.22Q328.53 0.22 330.51-1.61L330.51-1.61L330.51-1.61Q332.50-3.45 332.50-7.20L332.50-7.20L332.50-7.20Q332.50-9.97 330.36-11.63L330.36-11.63L330.36-11.63Q328.23-13.28 325.23-14.10L325.23-14.10L325.23-14.10Q322.23-14.92 319.19-15.90L319.19-15.90L319.19-15.90Q316.15-16.88 314.01-19.20L314.01-19.20L314.01-19.20Q311.88-21.52 311.88-25.35L311.88-25.35L311.88-25.35Q311.88-28.72 313.30-31.16L313.30-31.16L313.30-31.16Q314.73-33.60 317.09-34.73L317.09-34.73L317.09-34.73Q319.45-35.85 321.63-36.34L321.63-36.34L321.63-36.34Q323.80-36.82 326.13-36.82L326.13-36.82L326.13-36.82Q335.50-36.82 339.18-35.32L339.18-35.32L339.18-26.32L339.18-26.32Q338.05-26.25 336.33-26.25L336.33-26.25L336.33-26.25Q333.18-26.25 331.71-27.04L331.71-27.04L331.71-27.04Q330.25-27.82 330.25-30.30L330.25-30.30L330.25-34.88L330.25-34.88Q330.25-35.85 326.13-35.85L326.13-35.85L326.13-35.85Q323.35-35.85 321.29-34.31L321.29-34.31L321.29-34.31Q319.23-32.77 319.23-29.32L319.23-29.32L319.23-29.32Q319.23-27.07 320.80-25.65L320.80-25.65L320.80-25.65Q322.38-24.22 324.74-23.59L324.74-23.59L324.74-23.59Q327.10-22.95 329.84-22.05L329.84-22.05L329.84-22.05Q332.58-21.15 334.94-20.14L334.94-20.14L334.94-20.14Q337.30-19.13 338.88-16.76L338.88-16.76L338.88-16.76Q340.45-14.40 340.45-10.95L340.45-10.95L340.45-10.95Q340.45-5.92 335.73-2.40L335.73-2.40L335.73-2.40Q335.50-2.25 335.50-2.17L335.50-2.17L335.73-2.10L335.73-2.10Q340.75-3.90 345.10-7.42L345.10-7.42L345.10-7.42Q347.58-9.30 349.30-11.70L349.30-11.70L349.30-11.70Q349.83-11.70 349.83-11.10L349.83-11.10L349.83-11.10Q349.83-10.20 345.25-6.38L345.25-6.38L345.25-6.38Q341.88-3.52 335.99-1.16L335.99-1.16L335.99-1.16Q330.10 1.20 324.85 1.20Z"></path></g><g id="" class="logo--name svgSloganText_1 sloganBox" transform="scale(1) translate(320,345.6)" fill="#ffa9b2"></g></g></g></g></svg>